<svg width="27" height="24" viewBox="0 0 27 24" fill="none" xmlns="http://www.w3.org/2000/svg">
<path fill-rule="evenodd" clip-rule="evenodd" d="M22.5007 18.0007C24.1574 18.0007 25.499 19.3437 25.499 21.0003C25.499 22.657 24.1559 24 22.4993 24C20.8427 24 19.4996 22.657 19.4996 21.0003C19.4996 20.4533 19.6459 19.9414 19.9005 19.4998H11.5977C11.8523 19.9414 11.9986 20.4533 11.9986 21.0003C11.9986 22.657 10.6555 24 8.99889 24C7.34228 24 5.99924 22.657 5.99924 21.0003C5.99924 20.1101 6.38597 19.31 7.00195 18.7615C6.76007 18.4929 6.58005 18.1652 6.48724 17.7953L6.02174 15.932C6.01752 15.9179 6.01471 15.9024 6.01189 15.8884L3.766 3.90953L3.30475 2.06725C3.22177 1.73396 2.92223 1.49911 2.57769 1.49911H0.74809C0.334647 1.49911 -0.00146484 1.16441 -0.00146484 0.749555C-0.00146484 0.334704 0.334643 0 0.74809 0H2.57769C3.60993 0 4.50998 0.701744 4.76029 1.70446L5.08375 2.99969H26.2502C26.4654 2.99969 26.6693 3.09251 26.8113 3.25283C26.9548 3.41456 27.0209 3.62973 26.9941 3.84207L25.8227 13.2151C25.5878 15.0925 23.9931 16.5003 22.1016 16.5003H7.70917L7.94262 17.4326C8.02559 17.7659 8.32514 18.0008 8.66968 18.0008L22.5007 18.0007ZM8.98892 19.4998C8.16481 19.5055 7.49824 20.1749 7.49824 21.0004C7.49824 21.8287 8.17046 22.5009 8.99879 22.5009C9.82711 22.5009 10.4993 21.8287 10.4993 21.0004C10.4993 20.1749 9.83273 19.5055 9.00865 19.4998H8.98892ZM22.1014 14.9996H7.37173L5.40287 4.5001H25.4007L24.3333 13.0292C24.1927 14.1543 23.2363 14.9996 22.1014 14.9996ZM22.4994 22.5009C23.3278 22.5009 24 21.8287 24 21.0004C24 20.1721 23.3278 19.4998 22.4994 19.4998C21.6711 19.4998 20.9989 20.1721 20.9989 21.0004C20.9989 21.8287 21.6711 22.5009 22.4994 22.5009Z" fill="black"/>
</svg>
