<svg width="20" height="20" viewBox="0 0 24 24" fill="none" xmlns="http://www.w3.org/2000/svg">
<path d="M0.362369 1.31092H23.6376C23.8328 1.31092 24 1.0084 24 0.655462C24 0.302521 23.8606 0 23.6655 0H0.362369C0.167247 0 0 0.302521 0 0.655462C0 1.0084 0.167247 1.31092 0.362369 1.31092Z" fill="black"/>
<path d="M23.6655 11.3445H0.362369C0.167247 11.3445 0 11.647 0 11.9999C0 12.3529 0.167247 12.605 0.362369 12.605H23.6376C23.8328 12.605 24 12.3025 24 11.9495C24 11.5966 23.8606 11.3445 23.6655 11.3445Z" fill="black"/>
<path d="M23.6655 22.6891H0.362369C0.167247 22.6891 0 22.9916 0 23.3446C0 23.6975 0.167247 24 0.362369 24H23.6376C23.8328 24 24 23.6975 24 23.3446C24 22.9412 23.8606 22.6891 23.6655 22.6891Z" fill="black"/>
</svg>
