<svg width="228" height="46" viewBox="0 0 228 46" fill="none" xmlns="http://www.w3.org/2000/svg">
<rect x="1" y="1" width="226.008" height="44" rx="19" stroke="#FA5274" stroke-width="2"/>
<path fill-rule="evenodd" clip-rule="evenodd" d="M9.00081 23.338C17.2053 24.316 18.6859 25.7947 19.6641 34.0013C19.6663 34.0076 19.6663 34.0161 19.6663 34.0224C19.7507 34.7301 19.8226 35.4799 19.8859 36.2763C19.8859 36.2827 19.8881 36.289 19.8881 36.2975C19.9303 36.8424 19.9683 37.4107 20.0042 38C20.038 37.4107 20.076 36.8445 20.1204 36.2975C20.1204 36.2911 20.1204 36.2848 20.1225 36.2784C20.1859 35.4821 20.2577 34.7322 20.3422 34.0245C20.3422 34.0161 20.3443 34.0098 20.3443 34.0034C21.3202 25.7989 22.801 24.3183 31.0076 23.3401C31.014 23.338 31.0224 23.338 31.0288 23.338C31.7364 23.2535 32.4863 23.1817 33.2827 23.1183C33.289 23.1183 33.2953 23.1162 33.3017 23.1162C33.8467 23.0739 34.4149 23.0359 35.0042 23C34.4149 22.9662 33.8488 22.9282 33.3038 22.8838C33.2975 22.8838 33.2911 22.8838 33.2827 22.8817C32.4863 22.8183 31.7364 22.7465 31.0288 22.662C31.0203 22.662 31.014 22.6599 31.0055 22.6599C22.8011 21.6819 21.3204 20.2011 20.3422 11.9966C20.3401 11.9902 20.3401 11.9818 20.3401 11.9755C20.2556 11.2678 20.1838 10.5179 20.1204 9.72155C20.1204 9.71522 20.1183 9.70888 20.1183 9.70254C20.076 9.15756 20.038 8.58932 20.0021 8C19.9683 8.58932 19.9303 9.15545 19.8859 9.70043C19.8859 9.70677 19.8859 9.71311 19.8838 9.72156C19.8205 10.5179 19.7486 11.2678 19.6641 11.9755C19.6641 11.9839 19.662 11.9902 19.662 11.9987C18.684 20.2032 17.2053 21.6838 8.9987 22.662C8.99236 22.6641 8.98391 22.6641 8.97546 22.6641C8.26782 22.7486 7.51794 22.8205 6.72156 22.8838C6.71522 22.8838 6.70888 22.8859 6.70043 22.8859C6.15545 22.9282 5.58722 22.9662 5 23.0021C5.58932 23.0359 6.15545 23.0739 6.70254 23.1183C6.70888 23.1183 6.71522 23.1183 6.72155 23.1204C7.51794 23.1838 8.26781 23.2556 8.97546 23.3401C8.98391 23.3401 8.99025 23.3422 8.99658 23.3422L9.00081 23.338Z" fill="#FA5274"/>
<path d="M46.8043 17H49.3243V21.464C49.7323 20.36 50.4883 19.316 51.5923 18.332C52.6963 17.348 53.9443 16.856 55.3363 16.856C60.2083 16.856 62.6443 19.712 62.6443 25.424C62.6443 31.904 59.5003 35.144 53.2123 35.144C52.0843 35.144 50.7883 34.88 49.3243 34.352V44H46.8043V17ZM55.3003 17.144C53.8123 17.144 52.4683 17.792 51.2683 19.088C50.0683 20.36 49.4203 21.512 49.3243 22.544V34.028C50.7883 34.58 52.0723 34.856 53.1763 34.856C57.8083 34.856 60.1243 31.7 60.1243 25.388C60.1243 19.892 58.5163 17.144 55.3003 17.144ZM73.4901 18.548V17.792C72.4101 18.224 71.4261 19.1 70.5381 20.42C69.6501 21.716 69.1821 22.94 69.1341 24.092V35H66.6141V17H69.1341V22.724C69.5181 21.332 70.2501 20.024 71.3301 18.8C72.4101 17.552 73.6341 16.904 75.0021 16.856H75.1461C75.6261 16.856 76.0221 17.024 76.3341 17.36C76.6701 17.672 76.8381 18.068 76.8381 18.548C76.8381 19.028 76.6701 19.424 76.3341 19.736C76.0221 20.048 75.6261 20.204 75.1461 20.204C74.6661 20.204 74.2701 20.048 73.9581 19.736C73.6461 19.424 73.4901 19.028 73.4901 18.548ZM81.9898 26.216C81.9898 29.192 82.5058 31.376 83.5378 32.768C84.5938 34.16 85.9738 34.856 87.6778 34.856C90.0778 34.856 92.2138 34.496 94.0858 33.776L94.1938 34.028C92.2738 34.772 90.1018 35.144 87.6778 35.144C85.2778 35.144 83.3218 34.424 81.8098 32.984C80.2978 31.544 79.5418 29.324 79.5418 26.324C79.5418 23.324 80.3338 20.996 81.9178 19.34C83.5018 17.684 85.5178 16.856 87.9658 16.856C89.9338 16.856 91.5898 17.444 92.9338 18.62C94.2778 19.796 94.9498 21.536 94.9498 23.84C94.9498 23.96 94.9498 24.08 94.9498 24.2H82.0978C82.0258 24.848 81.9898 25.52 81.9898 26.216ZM92.5018 23.912C92.4778 21.608 92.0338 19.904 91.1698 18.8C90.3058 17.696 89.1898 17.144 87.8218 17.144C86.4538 17.144 85.2298 17.744 84.1498 18.944C83.0938 20.144 82.4218 21.8 82.1338 23.912H92.5018ZM103.159 35C101.047 35 99.7146 34.448 99.1626 33.344C99.0426 33.104 98.9826 32.888 98.9826 32.696V8.036H101.503V32.444C101.503 33.14 101.635 33.68 101.899 34.064C102.187 34.424 102.475 34.616 102.763 34.64L103.159 34.712H104.275V35H103.159ZM114.808 35.144C112.288 35.144 110.236 34.424 108.652 32.984C107.068 31.544 106.276 29.324 106.276 26.324C106.276 23.324 107.092 20.996 108.724 19.34C110.38 17.684 112.468 16.856 114.988 16.856C117.532 16.856 119.596 17.576 121.18 19.016C122.764 20.456 123.556 22.676 123.556 25.676C123.556 28.676 122.728 31.004 121.072 32.66C119.44 34.316 117.352 35.144 114.808 35.144ZM115.06 17.144C113.236 17.144 111.724 17.96 110.524 19.592C109.324 21.2 108.724 23.456 108.724 26.36C108.724 29.24 109.276 31.376 110.38 32.768C111.484 34.16 112.948 34.856 114.772 34.856C116.596 34.856 118.108 34.052 119.308 32.444C120.508 30.812 121.108 28.556 121.108 25.676C121.108 22.772 120.556 20.624 119.452 19.232C118.348 17.84 116.884 17.144 115.06 17.144ZM139.695 17.216L139.911 17C140.007 17.048 140.127 17.192 140.271 17.432C140.439 17.672 140.535 17.888 140.559 18.08C140.607 18.272 140.631 18.452 140.631 18.62C140.631 19.268 140.487 19.928 140.199 20.6L133.287 35H132.927L126.231 17H128.751L134.259 31.904L139.839 20.6C140.127 20.096 140.271 19.496 140.271 18.8C140.271 18.104 140.079 17.576 139.695 17.216ZM146.146 26.216C146.146 29.192 146.662 31.376 147.694 32.768C148.75 34.16 150.13 34.856 151.834 34.856C154.234 34.856 156.37 34.496 158.242 33.776L158.35 34.028C156.43 34.772 154.258 35.144 151.834 35.144C149.434 35.144 147.478 34.424 145.966 32.984C144.454 31.544 143.698 29.324 143.698 26.324C143.698 23.324 144.49 20.996 146.074 19.34C147.658 17.684 149.674 16.856 152.122 16.856C154.09 16.856 155.746 17.444 157.09 18.62C158.434 19.796 159.106 21.536 159.106 23.84C159.106 23.96 159.106 24.08 159.106 24.2H146.254C146.182 24.848 146.146 25.52 146.146 26.216ZM156.658 23.912C156.634 21.608 156.19 19.904 155.326 18.8C154.462 17.696 153.346 17.144 151.978 17.144C150.61 17.144 149.386 17.744 148.306 18.944C147.25 20.144 146.578 21.8 146.29 23.912H156.658ZM162.743 26.648C162.743 23.528 163.499 21.116 165.011 19.412C166.523 17.708 168.791 16.856 171.815 16.856C173.231 16.856 174.659 17.216 176.099 17.936V8.036H178.619V32.444C178.619 33.14 178.751 33.68 179.015 34.064C179.303 34.424 179.591 34.616 179.879 34.64L180.275 34.712H181.391V35H179.195C178.211 35 177.455 34.784 176.927 34.352C176.423 33.92 176.159 33.488 176.135 33.056L176.099 32.444V31.868C175.643 32.708 174.887 33.452 173.831 34.1C172.775 34.748 171.527 35.072 170.087 35.072C165.191 34.952 162.743 32.144 162.743 26.648ZM170.123 34.784C171.731 34.784 173.111 34.352 174.263 33.488C175.415 32.624 176.027 31.772 176.099 30.932V18.26C174.395 17.516 172.931 17.144 171.707 17.144C169.571 17.144 167.963 17.984 166.883 19.664C165.803 21.32 165.263 23.648 165.263 26.648C165.263 32.072 166.883 34.784 170.123 34.784Z" fill="#FA5274"/>
<path fill-rule="evenodd" clip-rule="evenodd" d="M197.005 23.338C205.21 24.316 206.69 25.7947 207.668 34.0013C207.671 34.0076 207.671 34.0161 207.671 34.0224C207.755 34.7301 207.827 35.4799 207.89 36.2763C207.89 36.2827 207.892 36.289 207.892 36.2975C207.935 36.8424 207.973 37.4107 208.009 38C208.042 37.4107 208.08 36.8445 208.125 36.2975C208.125 36.2911 208.125 36.2848 208.127 36.2784C208.19 35.4821 208.262 34.7322 208.346 34.0245C208.346 34.0161 208.349 34.0098 208.349 34.0034C209.325 25.7989 210.805 24.3183 219.012 23.3401C219.018 23.338 219.027 23.338 219.033 23.338C219.741 23.2535 220.491 23.1817 221.287 23.1183C221.293 23.1183 221.3 23.1162 221.306 23.1162C221.851 23.0739 222.419 23.0359 223.008 23C222.419 22.9662 221.853 22.9282 221.308 22.8838C221.302 22.8838 221.295 22.8838 221.287 22.8817C220.491 22.8183 219.741 22.7465 219.033 22.662C219.025 22.662 219.018 22.6599 219.01 22.6599C210.805 21.6819 209.325 20.2011 208.346 11.9966C208.344 11.9902 208.344 11.9818 208.344 11.9755C208.26 11.2678 208.188 10.5179 208.125 9.72155C208.125 9.71522 208.123 9.70888 208.123 9.70254C208.08 9.15756 208.042 8.58932 208.006 8C207.973 8.58932 207.935 9.15545 207.89 9.70043C207.89 9.70677 207.89 9.71311 207.888 9.72156C207.825 10.5179 207.753 11.2678 207.668 11.9755C207.668 11.9839 207.666 11.9902 207.666 11.9987C206.688 20.2032 205.21 21.6838 197.003 22.662C196.997 22.6641 196.988 22.6641 196.98 22.6641C196.272 22.7486 195.522 22.8205 194.726 22.8838C194.719 22.8838 194.713 22.8859 194.705 22.8859C194.16 22.9282 193.591 22.9662 193.004 23.0021C193.594 23.0359 194.16 23.0739 194.707 23.1183C194.713 23.1183 194.719 23.1183 194.726 23.1204C195.522 23.1838 196.272 23.2556 196.98 23.3401C196.988 23.3401 196.995 23.3422 197.001 23.3422L197.005 23.338Z" fill="#FA5274"/>
</svg>
