<svg width="24" height="24" viewBox="0 0 24 24" fill="none" xmlns="http://www.w3.org/2000/svg">
<path d="M23.7916 22.7939L16.8397 15.842C18.4596 13.9635 19.288 11.5301 19.1508 9.05339C19.0136 6.5767 17.9215 4.24967 16.104 2.56159C14.2865 0.873509 11.8853 -0.0441231 9.40524 0.00163244C6.92517 0.047388 4.55945 1.05297 2.80547 2.80694C1.0515 4.56091 0.0459231 6.92664 0.0001676 9.40671C-0.0455879 11.8868 0.872044 14.288 2.56013 16.1055C4.24821 17.9229 6.57523 19.0151 9.05193 19.1523C11.5286 19.2895 13.962 18.4611 15.8405 16.8412L22.7924 23.7931C22.858 23.8587 22.9359 23.9107 23.0217 23.9462C23.1074 23.9817 23.1992 24 23.292 24C23.3848 24 23.4767 23.9817 23.5624 23.9462C23.6481 23.9107 23.726 23.8587 23.7916 23.7931C23.8572 23.7275 23.9093 23.6496 23.9448 23.5639C23.9803 23.4781 23.9985 23.3863 23.9985 23.2935C23.9985 23.2007 23.9803 23.1088 23.9448 23.0231C23.9093 22.9374 23.8572 22.8595 23.7916 22.7939ZM1.48643 9.6219C1.48643 8.01036 1.96431 6.43501 2.85963 5.09507C3.75495 3.75513 5.0275 2.71077 6.51637 2.09406C8.00524 1.47735 9.64354 1.31599 11.2241 1.63039C12.8047 1.94478 14.2565 2.72081 15.3961 3.86034C16.5356 4.99987 17.3116 6.45171 17.626 8.03229C17.9404 9.61286 17.779 11.2512 17.1623 12.74C16.5456 14.2289 15.5013 15.5014 14.1613 16.3968C12.8214 17.2921 11.246 17.77 9.6345 17.77C7.4735 17.77 5.40101 16.9115 3.87295 15.3835C2.34489 13.8554 1.48643 11.7829 1.48643 9.6219Z" fill="black"/>
</svg>
