<svg width="30" height="30" viewBox="0 0 30 30" fill="none" xmlns="http://www.w3.org/2000/svg">
<path fill-rule="evenodd" clip-rule="evenodd" d="M0 7.03809V22.962C0 26.849 3.15102 30 7.03799 30H22.962C26.849 30 30 26.849 30 22.962V7.03809C30 3.15106 26.8489 0 22.9619 0H7.03809C3.15106 0 0 3.15106 0 7.03809ZM2.757 7.64688C2.757 4.94627 4.94627 2.757 7.64688 2.757H22.3532C25.0538 2.757 27.243 4.94623 27.243 7.64679V22.3532C27.243 25.0538 25.0538 27.243 22.3532 27.243H7.64688C4.94627 27.243 2.757 25.0537 2.757 22.3531V7.64688ZM10.7634 15C10.7634 17.3361 12.6639 19.2366 15 19.2366C17.3361 19.2366 19.2366 17.3361 19.2366 15C19.2366 12.6639 17.3361 10.7634 15 10.7634C12.6639 10.7634 10.7634 12.6639 10.7634 15ZM8.2699 15C8.2699 11.2889 11.2889 8.2699 15 8.2699C18.7111 8.2699 21.7301 11.2889 21.7301 15C21.7301 18.7111 18.7111 21.7301 15 21.7301C11.2889 21.7301 8.2699 18.7111 8.2699 15ZM22.7147 5.6748C23.6814 5.6748 24.465 6.45845 24.465 7.42513C24.465 8.39183 23.6814 9.17547 22.7147 9.17547C21.748 9.17547 20.9644 8.39183 20.9644 7.42513C20.9644 6.45845 21.748 5.6748 22.7147 5.6748Z" fill="#FA5274"/>
</svg>
